HIERARCHY
ROOT Hips
{
  OFFSET 0.000000 0.000000 0.000000
  CHANNELS 6 Xposition Yposition Zposition Zrotation Xrotation Yrotation
  JOINT Spine
  {
    OFFSET 0.000000 10.000000 0.000000
    CHANNELS 3 Zrotation Xrotation Yrotation
    JOINT Chest
    {
      OFFSET 0.000000 15.000000 0.000000
      CHANNELS 3 Zrotation Xrotation Yrotation
      JOINT Neck
      {
        OFFSET 0.000000 15.000000 0.000000
        CHANNELS 3 Zrotation Xrotation Yrotation
        JOINT Head
        {
          OFFSET 0.000000 10.000000 0.000000
          CHANNELS 3 Zrotation Xrotation Yrotation
          End Site
          {
            OFFSET 0.0 0.0 0.0
          }
        }
      }
      JOINT LeftShoulder
      {
        OFFSET 20.000000 15.000000 0.000000
        CHANNELS 3 Zrotation Xrotation Yrotation
        JOINT LeftArm
        {
          OFFSET 15.000000 0.000000 0.000000
          CHANNELS 3 Zrotation Xrotation Yrotation
          JOINT LeftForeArm
          {
            OFFSET 25.000000 0.000000 0.000000
            CHANNELS 3 Zrotation Xrotation Yrotation
            JOINT LeftHand
            {
              OFFSET 20.000000 0.000000 0.000000
              CHANNELS 3 Zrotation Xrotation Yrotation
              End Site
              {
                OFFSET 0.0 0.0 0.0
              }
            }
          }
        }
      }
      JOINT RightShoulder
      {
        OFFSET -20.000000 15.000000 0.000000
        CHANNELS 3 Zrotation Xrotation Yrotation
        JOINT RightArm
        {
          OFFSET -15.000000 0.000000 0.000000
          CHANNELS 3 Zrotation Xrotation Yrotation
          JOINT RightForeArm
          {
            OFFSET -25.000000 0.000000 0.000000
            CHANNELS 3 Zrotation Xrotation Yrotation
            JOINT RightHand
            {
              OFFSET -20.000000 0.000000 0.000000
              CHANNELS 3 Zrotation Xrotation Yrotation
              End Site
              {
                OFFSET 0.0 0.0 0.0
              }
            }
          }
        }
      }
    }
  }
  JOINT LeftUpLeg
  {
    OFFSET 10.000000 -10.000000 0.000000
    CHANNELS 3 Zrotation Xrotation Yrotation
    JOINT LeftLeg
    {
      OFFSET 0.000000 -45.000000 0.000000
      CHANNELS 3 Zrotation Xrotation Yrotation
      JOINT LeftFoot
      {
        OFFSET 0.000000 -45.000000 0.000000
        CHANNELS 3 Zrotation Xrotation Yrotation
        JOINT LeftToeBase
        {
          OFFSET 0.000000 0.000000 10.000000
          CHANNELS 3 Zrotation Xrotation Yrotation
          End Site
          {
            OFFSET 0.0 0.0 0.0
          }
        }
      }
    }
  }
  JOINT RightUpLeg
  {
    OFFSET -10.000000 -10.000000 0.000000
    CHANNELS 3 Zrotation Xrotation Yrotation
    JOINT RightLeg
    {
      OFFSET 0.000000 -45.000000 0.000000
      CHANNELS 3 Zrotation Xrotation Yrotation
      JOINT RightFoot
      {
        OFFSET 0.000000 -45.000000 0.000000
        CHANNELS 3 Zrotation Xrotation Yrotation
        JOINT RightToeBase
        {
          OFFSET 0.000000 0.000000 10.000000
          CHANNELS 3 Zrotation Xrotation Yrotation
          End Site
          {
            OFFSET 0.0 0.0 0.0
          }
        }
      }
    }
  }
}
MOTION
Frames: 13
Frame Time: 0.033333
18.037869 -0.264888 2.503990 0.000000 0.000000 0.000000 0.000000 0.000000 0.000000 0.000000 0.000000 0.000000 0.000000 0.000000 0.000000 0.000000 0.000000 0.000000 -5.564554 0.193378 -3.977529 -7.854752 0.795015 -11.541164 12.414971 -1.892108 -17.265712 12.414971 -1.892108 -17.265712 21.568287 -1.590676 -8.336969 -0.708688 0.112585 -18.053334 -20.019428 7.918588 -42.823986 -20.019428 7.918588 -42.823986 0.929762 -35.433850 0.297034 -23.929431 -34.620762 -7.557300 79.929201 142.886110 31.426109 79.929201 142.886110 31.426109 -3.648947 -12.608526 -0.403257 -6.931265 -31.371577 -1.948625 -15.579903 119.732451 -9.080712 -15.579903 119.732451 -9.080712
18.036558 -0.237511 2.657180 0.000000 0.000000 0.000000 0.000000 0.000000 0.000000 0.000000 0.000000 0.000000 0.000000 0.000000 0.000000 0.000000 0.000000 0.000000 -5.414982 0.224257 -4.739493 -8.206899 0.792330 -11.010424 11.608091 -1.820948 -17.771957 11.608091 -1.820948 -17.771957 21.711681 -1.861499 -9.684640 -0.482839 0.075887 -17.863880 -19.462713 7.911364 -43.919851 -19.462713 7.911364 -43.919851 1.021940 -34.795841 0.320224 -23.950477 -34.767934 -7.598237 89.492825 146.314729 33.405007 89.492825 146.314729 33.405007 -3.662025 -12.557664 -0.403058 -7.052111 -31.020226 -1.959347 -15.362169 120.110878 -8.885094 -15.362169 120.110878 -8.885094
18.002235 -0.195463 3.150378 0.000000 0.000000 0.000000 0.000000 0.000000 0.000000 0.000000 0.000000 0.000000 0.000000 0.000000 0.000000 0.000000 0.000000 0.000000 -5.008206 0.287841 -6.574623 -7.617451 0.580069 -8.696635 10.792705 -1.772371 -18.598914 10.792705 -1.772371 -18.598914 22.157189 -2.594432 -13.193785 -0.499828 0.077283 -17.578762 -18.993040 7.578612 -43.200921 -18.993040 7.578612 -43.200921 0.809505 -33.889191 0.246638 -24.193396 -34.618416 -7.642379 96.206887 147.924248 35.532911 96.206887 147.924248 35.532911 -3.816633 -12.859659 -0.430273 -7.296195 -30.831479 -2.014379 -14.746048 120.549485 -8.451045 -14.746048 120.549485 -8.451045
17.968249 -0.162407 3.513068 0.000000 0.000000 0.000000 0.000000 0.000000 0.000000 0.000000 0.000000 0.000000 0.000000 0.000000 0.000000 0.000000 0.000000 0.000000 -4.546707 0.266352 -6.701764 -7.063882 0.494970 -8.006308 11.029947 -1.794535 -18.427075 11.029947 -1.794535 -18.427075 22.596258 -3.042397 -15.143110 -0.442673 0.071105 -18.250390 -19.099976 7.741834 -43.818367 -19.099976 7.741834 -43.818367 0.629720 -32.874545 0.185784 -24.426697 -34.311582 -7.645639 99.045896 147.744541 37.436567 99.045896 147.744541 37.436567 -4.006102 -13.310968 -0.467642 -7.391123 -30.732804 -2.033800 -14.111430 120.674267 -8.064435 -14.111430 120.674267 -8.064435
17.942872 -0.130731 3.750049 0.000000 0.000000 0.000000 0.000000 0.000000 0.000000 0.000000 0.000000 0.000000 0.000000 0.000000 0.000000 0.000000 0.000000 0.000000 -4.335080 0.249086 -6.573885 -6.829191 0.467681 -7.826095 10.992390 -1.789150 -18.434794 10.992390 -1.789150 -18.434794 22.787654 -3.154234 -15.559579 -0.428671 0.069720 -18.475549 -19.120517 7.763105 -43.884144 -19.120517 7.763105 -43.884144 0.463580 -32.435999 0.134841 -24.556014 -34.211363 -7.663478 100.847509 147.794067 38.504788 100.847509 147.794067 38.504788 -4.175090 -13.548516 -0.496163 -7.460013 -30.629348 -2.045556 -13.793203 121.012565 -7.827524 -13.793203 121.012565 -7.827524
17.934319 -0.115465 3.936109 0.000000 0.000000 0.000000 0.000000 0.000000 0.000000 0.000000 0.000000 0.000000 0.000000 0.000000 0.000000 0.000000 0.000000 0.000000 -3.983518 0.222403 -6.388540 -6.499098 0.368424 -6.482149 11.325902 -1.734652 -17.360709 11.325902 -1.734652 -17.360709 22.765091 -3.254696 -16.065174 -0.382412 0.062804 -18.652981 -19.231597 7.817425 -43.927540 -19.231597 7.817425 -43.927540 0.310412 -32.055689 0.089173 -24.722838 -34.078156 -7.685221 102.019722 148.084888 38.910063 102.019722 148.084888 38.910063 -4.415131 -13.792415 -0.534254 -7.401170 -30.566431 -2.025007 -13.341602 121.172585 -7.545062 -13.341602 121.172585 -7.545062
17.932072 -0.090950 4.063846 0.000000 0.000000 0.000000 0.000000 0.000000 0.000000 0.000000 0.000000 0.000000 0.000000 0.000000 0.000000 0.000000 0.000000 0.000000 -3.420391 0.190295 -6.366920 -6.203382 0.354418 -6.533495 11.108911 -1.700887 -17.357435 11.108911 -1.700887 -17.357435 22.523593 -3.140831 -15.678429 -0.102376 0.016444 -18.249921 -18.826698 7.565856 -43.486782 -18.826698 7.565856 -43.486782 0.253263 -32.058698 0.072763 -24.885505 -33.779022 -7.665430 102.895342 148.290307 39.229641 102.895342 148.290307 39.229641 -4.597024 -13.758031 -0.554886 -7.397653 -30.459451 -2.016614 -12.990233 121.319120 -7.323293 -12.990233 121.319120 -7.323293
17.928990 -0.066115 4.143661 0.000000 0.000000 0.000000 0.000000 0.000000 0.000000 0.000000 0.000000 0.000000 0.000000 0.000000 0.000000 0.000000 0.000000 0.000000 -2.979843 0.174147 -6.687818 -5.919950 0.344435 -6.653766 11.225181 -1.767391 -17.840422 11.225181 -1.767391 -17.840422 22.330461 -3.009923 -15.164150 0.199755 -0.031712 -18.041090 -18.542857 7.435303 -43.408291 -18.542857 7.435303 -43.408291 0.229767 -31.976463 0.065834 -24.956603 -33.669502 -7.661625 103.147376 147.955338 39.797803 103.147376 147.955338 39.797803 -4.766951 -13.827493 -0.578354 -7.361048 -30.468038 -2.007203 -12.729847 121.294054 -7.179328 -12.729847 121.294054 -7.179328
17.923811 -0.046875 4.192894 0.000000 0.000000 0.000000 0.000000 0.000000 0.000000 0.000000 0.000000 0.000000 0.000000 0.000000 0.000000 0.000000 0.000000 0.000000 -2.803918 0.159154 -6.496111 -5.724402 0.322767 -6.448998 11.391416 -1.778784 -17.694095 11.391416 -1.778784 -17.694095 22.249890 -2.987686 -15.108629 0.198301 -0.031606 -18.111523 -18.357979 7.377456 -43.501424 -18.357979 7.377456 -43.501424 0.199463 -31.644470 0.056526 -25.103421 -33.381985 -7.638520 104.163307 147.860850 40.587277 104.163307 147.860850 40.587277 -4.850412 -13.823567 -0.588323 -7.366824 -30.425174 -2.005819 -12.751948 121.340597 -7.185046 -12.751948 121.340597 -7.185046
17.919804 -0.029900 4.224471 0.000000 0.000000 0.000000 0.000000 0.000000 0.000000 0.000000 0.000000 0.000000 0.000000 0.000000 0.000000 0.000000 0.000000 0.000000 -2.669799 0.149694 -6.417208 -5.641824 0.316671 -6.420032 11.539617 -1.809074 -17.761701 11.539617 -1.809074 -17.761701 22.204008 -2.955926 -14.981096 0.204935 -0.032658 -18.108772 -18.229158 7.327264 -43.513946 -18.229158 7.327264 -43.513946 0.184254 -31.438721 0.051859 -25.193863 -33.209058 -7.624949 105.780790 148.093391 41.397918 105.780790 148.093391 41.397918 -4.906718 -13.806945 -0.594438 -7.363127 -30.379263 -2.001639 -12.781733 121.400050 -7.193199 -12.781733 121.400050 -7.193199
17.915363 -0.022630 4.244981 0.000000 0.000000 0.000000 0.000000 0.000000 0.000000 0.000000 0.000000 0.000000 0.000000 0.000000 0.000000 0.000000 0.000000 0.000000 -2.743406 0.171946 -7.171426 -5.776471 0.385618 -7.631999 11.577993 -1.921003 -18.779928 11.577993 -1.921003 -18.779928 22.347313 -2.977085 -14.989061 0.331845 -0.053053 -18.166319 -17.817488 7.129820 -43.349860 -17.817488 7.129820 -43.349860 0.179883 -31.703030 0.051076 -25.174347 -33.454374 -7.678286 107.043641 148.073273 42.301632 107.043641 148.073273 42.301632 -4.908234 -13.780082 -0.593454 -7.369789 -30.414147 -2.005866 -12.829279 121.373881 -7.223964 -12.829279 121.373881 -7.223964
17.915191 -0.019039 4.252195 0.000000 0.000000 0.000000 0.000000 0.000000 0.000000 0.000000 0.000000 0.000000 0.000000 0.000000 0.000000 0.000000 0.000000 0.000000 -2.779518 0.172896 -7.117462 -5.966143 0.412587 -7.904852 11.300012 -1.872231 -18.756764 11.300012 -1.872231 -18.756764 22.376180 -2.929146 -14.730967 0.333438 -0.053004 -18.064434 -17.776882 7.121754 -43.396441 -17.776882 7.121754 -43.396441 0.232037 -31.795513 0.066088 -25.156768 -33.445518 -7.670620 108.501034 148.672610 42.563098 108.501034 148.672610 42.563098 -4.866922 -13.344769 -0.569692 -7.426644 -30.299552 -2.013398 -12.987145 121.412515 -7.307616 -12.987145 121.412515 -7.307616
17.913071 -0.015387 4.241345 0.000000 0.000000 0.000000 0.000000 0.000000 0.000000 0.000000 0.000000 0.000000 0.000000 0.000000 0.000000 0.000000 0.000000 0.000000 -2.822739 0.175390 -7.109533 -6.206066 0.426063 -7.847067 11.359719 -1.868792 -18.625600 11.359719 -1.868792 -18.625600 22.475234 -2.772890 -13.890313 0.227792 -0.035016 -17.478164 -17.925134 7.068907 -42.773837 -17.925134 7.068907 -42.773837 0.260734 -31.854013 0.074405 -25.136198 -33.460747 -7.667847 109.757076 149.249341 42.705970 109.757076 149.249341 42.705970 -4.755855 -13.119339 -0.547189 -7.539317 -29.907237 -2.016316 -13.144147 121.823647 -7.334593 -13.144147 121.823647 -7.334593
